<?xml version="1.0" encoding="UTF-8" standalone="no"?>
<svg
   id="Calque_1"
   data-name="Calque 1"
   version="1.1"
   viewBox="0 0 702.70001 178.3"
   sodipodi:docname="logo-horizontal-orange.svg"
   width="702.70001"
   height="178.3"
   inkscape:version="1.4 (e7c3feb100, 2024-10-09)"
   xmlns:inkscape="http://www.inkscape.org/namespaces/inkscape"
   xmlns:sodipodi="http://sodipodi.sourceforge.net/DTD/sodipodi-0.dtd"
   xmlns="http://www.w3.org/2000/svg"
   xmlns:svg="http://www.w3.org/2000/svg">
  <sodipodi:namedview
     id="namedview6"
     pagecolor="#ffffff"
     bordercolor="#000000"
     borderopacity="0.25"
     inkscape:showpageshadow="2"
     inkscape:pageopacity="0.0"
     inkscape:pagecheckerboard="0"
     inkscape:deskcolor="#d1d1d1"
     inkscape:zoom="1.05625"
     inkscape:cx="351.2426"
     inkscape:cy="89.467456"
     inkscape:window-width="1920"
     inkscape:window-height="1125"
     inkscape:window-x="0"
     inkscape:window-y="0"
     inkscape:window-maximized="1"
     inkscape:current-layer="Calque_1" />
  <defs
     id="defs1">
    <style
       id="style1">
      .cls-1 {
        fill: #ff6315;
        stroke: #ff6315;
        stroke-miterlimit: 10;
        stroke-width: 2px;
      }
    </style>
  </defs>
  <path
     class="cls-1"
     d="m 60.3,177.3 c -11.4,0 -21.6,-2.8 -30.5,-8.4 C 20.9,163.3 13.8,155.7 8.7,146.3 3.6,136.9 1,126.5 1,115 1,103.5 3.8,93.4 9.3,84 14.9,74.6 22.4,67.1 31.9,61.6 41.4,56 52.1,53.3 64,53.3 c 11.9,0 22.6,2.7 32.1,8.1 9.5,5.4 17,12.8 22.6,22.1 5.6,9.3 8.3,19.9 8.3,31.6 v 59.4 h -22.7 v -44.2 l 8.2,-6.3 c 0,10 -2.2,19 -6.6,27 -4.4,8 -10.5,14.4 -18.3,19.2 -7.8,4.7 -16.9,7.1 -27.2,7.1 z m 3.6,-22.7 c 7.4,0 14.1,-1.8 20,-5.3 5.9,-3.5 10.6,-8.3 14,-14.4 3.4,-6 5.1,-12.6 5.1,-19.7 0,-7.1 -1.7,-13.8 -5.1,-19.8 -3.4,-5.9 -8,-10.7 -14,-14.4 -6,-3.6 -12.6,-5.4 -20,-5.4 -7.4,0 -14,1.8 -19.9,5.4 -5.9,3.6 -10.5,8.4 -14,14.4 -3.5,6 -5.2,12.5 -5.2,19.8 0,7.3 1.7,13.6 5.2,19.7 3.5,6 8.1,10.8 14,14.4 5.9,3.5 12.5,5.3 19.9,5.3 z"
     id="path1" />
  <path
     class="cls-1"
     d="m 218.1,177.3 c -11.9,0 -22.6,-2.7 -32.1,-8.1 -9.5,-5.4 -17,-12.8 -22.6,-22.2 -5.6,-9.4 -8.3,-19.9 -8.3,-31.5 V 1.8 H 179 v 93.6 l -12.3,6.3 c 0,-8.7 2.4,-16.7 7.1,-24.1 4.7,-7.4 11.1,-13.3 19.1,-17.7 8,-4.4 16.7,-6.6 26.2,-6.6 9.5,0 22.7,2.7 32,8.1 9.2,5.4 16.5,12.8 21.8,22.1 5.3,9.3 8,20 8,32.1 0,12.1 -2.7,21.6 -8.2,30.9 -5.5,9.3 -13,16.8 -22.4,22.4 -9.5,5.6 -20.2,8.4 -32.1,8.4 z m 0,-22.4 c 7.4,0 14,-1.8 19.9,-5.4 5.9,-3.6 10.5,-8.4 13.9,-14.4 3.4,-5.9 5.1,-12.5 5.1,-19.8 0,-7.3 -1.7,-13.6 -5.1,-19.7 -3.4,-6 -8,-10.8 -13.9,-14.4 -5.9,-3.5 -12.5,-5.3 -19.9,-5.3 -7.4,0 -14,1.8 -19.9,5.3 -5.9,3.5 -10.5,8.3 -14,14.4 -3.5,6.1 -5.2,12.6 -5.2,19.7 0,7.1 1.7,13.8 5.2,19.8 3.5,6 8.1,10.7 14,14.4 5.9,3.6 12.5,5.4 19.9,5.4 z"
     id="path2" />
  <path
     class="cls-1"
     d="m 325.8,174.4 h -23.9 v -70.5 c 0,-9.7 1.8,-18.3 5.4,-25.8 3.6,-7.6 8.9,-13.5 15.9,-17.9 7,-4.3 15.6,-6.5 25.9,-6.5 10.3,0 7.6,0.4 11.2,1.1 3.6,0.7 7,1.8 10,3.3 v 23.7 c -2.9,-1.8 -6,-3.1 -9.3,-3.9 -3.3,-0.8 -6.6,-1.2 -9.8,-1.2 -7.9,0 -14.1,2.5 -18.7,7.6 -4.6,5.1 -6.9,11.9 -6.9,20.6 v 69.5 z"
     id="path3" />
  <path
     class="cls-1"
     d="m 401.1,32.7 c -2.7,0 -5.3,-0.7 -7.7,-2 -2.4,-1.4 -4.3,-3.3 -5.8,-5.7 -1.4,-2.4 -2.2,-5.1 -2.2,-8 0,-2.9 0.7,-5.6 2.2,-8 1.4,-2.4 3.4,-4.3 5.8,-5.8 2.4,-1.4 5,-2.2 7.7,-2.2 2.7,0 5.5,0.7 7.8,2.2 2.3,1.4 4.2,3.4 5.5,5.8 1.4,2.4 2.1,5.1 2.1,8 0,2.9 -0.7,5.6 -2.1,8 -1.4,2.4 -3.2,4.3 -5.5,5.7 -2.3,1.4 -4.9,2 -7.8,2 z m -11.9,23.5 h 23.9 v 118.3 h -23.9 z"
     id="path4" />
  <path
     class="cls-1"
     d="m 506.3,177.1 c -8.4,0.2 -16.3,-1.4 -23.9,-4.6 -7.6,-3.2 -14.2,-7.7 -19.8,-13.4 -5.6,-5.7 -10.1,-12.3 -13.3,-19.9 -3.2,-7.6 -4.8,-15.6 -4.8,-24.1 0,-8.5 1.6,-16.5 4.8,-24 3.2,-7.5 7.6,-14.1 13.3,-19.8 5.6,-5.7 12.2,-10.1 19.8,-13.3 7.6,-3.2 15.5,-4.7 23.9,-4.7 8.4,0 21.1,2.5 30.4,7.5 9.3,5 16.7,12.9 22.2,23.7 l -19.8,11.1 c -3.5,-6.6 -8.2,-11.5 -13.9,-14.7 -5.7,-3.2 -12,-4.8 -18.9,-4.8 -6.9,0 -13.2,1.8 -18.9,5.3 -5.7,3.5 -10.3,8.3 -13.8,14.2 -3.5,6 -5.2,12.5 -5.2,19.5 0,7 1.7,13.8 5.2,19.8 3.5,6 8,10.7 13.8,14.4 5.7,3.6 12,5.4 18.9,5.4 6.9,0 13.2,-1.6 18.9,-4.9 5.7,-3.3 10.3,-8.2 13.9,-14.6 l 19.8,10.9 c -5.5,10.6 -12.9,18.5 -22.2,23.5 -9.3,5.1 -19.5,7.6 -30.4,7.6 z"
     id="path5" />
  <path
     class="cls-1"
     d="m 639,177.3 c -11.9,0 -22.6,-2.8 -32.1,-8.4 -9.5,-5.6 -17.1,-13.2 -22.7,-22.6 -5.6,-9.4 -8.4,-19.8 -8.4,-31.3 0,-11.5 2.8,-21.8 8.4,-31.1 5.6,-9.3 13.2,-16.8 22.7,-22.3 9.5,-5.6 20.2,-8.3 32.1,-8.3 11.9,0 22.6,2.8 32.1,8.3 9.5,5.6 17,13 22.4,22.4 5.5,9.4 8.2,19.8 8.2,31 0,11.2 -2.7,21.8 -8.2,31.3 -5.5,9.4 -13,16.9 -22.6,22.6 -9.6,5.6 -20.2,8.4 -32,8.4 z m 0,-22.7 c 7.4,0 14,-1.8 19.9,-5.3 5.9,-3.5 10.5,-8.3 13.9,-14.4 3.4,-6 5.1,-12.6 5.1,-19.7 0,-7.1 -1.7,-13.8 -5.1,-19.8 -3.4,-5.9 -8,-10.7 -13.9,-14.4 -5.9,-3.6 -12.5,-5.4 -19.9,-5.4 -7.4,0 -14,1.8 -19.9,5.4 -5.9,3.6 -10.6,8.4 -14.1,14.4 -3.5,6 -5.3,12.5 -5.3,19.8 0,7.3 1.8,13.6 5.3,19.7 3.5,6 8.2,10.8 14.1,14.4 5.9,3.5 12.5,5.3 19.9,5.3 z"
     id="path6" />
</svg>
